<svg xmlns:xlink="http://www.w3.org/1999/xlink" xmlns="http://www.w3.org/2000/svg" width="150" height="40" viewBox="0 0 150 40" fill="none">
<g clip-path="url(#clip0_7_1205)">
<path d="M20.0383 28.7676C16.4058 28.7676 13.2901 26.5589 11.961 23.4116L1.09131 26.4288C3.76928 34.3207 11.2392 40.0001 20.0383 40.0001C25.3627 40.0001 30.2019 37.9176 33.7831 34.5258L25.6348 26.7482C24.1164 28.0103 22.1641 28.7676 20.0383 28.7676Z" fill="#FF0033"/>
<path d="M11.2709 20.0039C11.2709 15.1607 15.1951 11.2364 20.0384 11.2364C20.6221 11.2364 21.19 11.2956 21.7382 11.4021L24.499 0.500887C23.0634 0.173536 21.5726 0 20.0384 0C8.99124 0 0.0344238 8.95681 0.0344238 20.0039C0.0344238 21.8182 0.275008 23.5772 0.728567 25.2495L11.5588 22.2402C11.3734 21.5263 11.2709 20.777 11.2709 20.0039Z" fill="#FF0033"/>
<path d="M28.8018 20.0039C28.8018 22.2717 27.9421 24.3384 26.5262 25.8963L34.6508 33.6581C37.9914 30.0848 40.0343 25.285 40.0343 20.0039C40.0343 10.9209 33.9803 3.2538 25.69 0.816406L22.9253 11.7294C26.3487 12.9205 28.8018 16.1743 28.8018 20.0039Z" fill="#FF0033"/>
<path d="M65.564 22.5556H62.1919C61.9631 22.5556 61.7817 22.3268 61.7817 22.0429V11.3783C61.7817 11.2008 61.7068 11.1732 61.6555 11.1732C61.5806 11.1732 61.5293 11.2245 61.4504 11.3507L59.1511 15.5708C58.9736 15.8784 58.7172 16.0046 58.3859 16.0046H56.339C56.0077 16.0046 55.7513 15.8784 55.5739 15.5708L53.2745 11.3507C53.1996 11.2245 53.1483 11.1732 53.0694 11.1732C53.0182 11.1732 52.9432 11.1969 52.9432 11.3783V22.0389C52.9432 22.319 52.7657 22.5517 52.533 22.5517H49.157C48.9519 22.5517 48.7231 22.4728 48.7231 22.1928V4.42505C48.7231 3.88867 49.1057 3.55737 49.6421 3.55737H52.044C52.5804 3.55737 52.9393 3.81373 53.168 4.24757L57.0805 11.5361C57.183 11.7412 57.2579 11.8674 57.3605 11.8674C57.463 11.8674 57.538 11.7412 57.6405 11.5361L61.553 4.24757C61.7817 3.81373 62.1406 3.55737 62.677 3.55737H65.0789C65.6153 3.55737 65.9978 3.91628 65.9978 4.45266V22.1967C66.0018 22.4767 65.7691 22.5556 65.564 22.5556Z" fill="white"/>
<path d="M76.7138 22.7843C72.4937 22.7843 69.1453 20.5087 69.1453 14.5769V11.5361C69.1453 5.6043 72.4937 3.32861 76.7138 3.32861C80.9339 3.32861 84.2823 5.6043 84.2823 11.5361V14.5769C84.2823 20.5087 80.9339 22.7843 76.7138 22.7843ZM79.8848 11.5321C79.8848 8.46369 78.8633 7.15823 76.7138 7.15823C74.5643 7.15823 73.5704 8.46369 73.5704 11.5321V14.5729C73.5704 17.6414 74.5683 18.9468 76.7138 18.9468C78.8593 18.9468 79.8848 17.6414 79.8848 14.5729V11.5321Z" fill="white"/>
<path d="M101.49 22.5556H98.9853C98.449 22.5556 98.0664 22.4531 97.6562 21.7629L91.827 11.6899C91.7245 11.5361 91.6732 11.4848 91.5983 11.4848C91.5233 11.4848 91.472 11.5361 91.472 11.6899V22.0468C91.472 22.3268 91.2433 22.5595 90.9593 22.5595H87.9422C87.6621 22.5595 87.4294 22.3308 87.4294 22.0468V4.5276C87.4294 3.99121 87.8633 3.55737 88.3997 3.55737H90.983C91.4957 3.55737 91.7481 3.81373 92.0558 4.35012L98.1137 14.8845C98.2163 15.0383 98.2399 15.0896 98.3188 15.0896C98.3701 15.0896 98.445 15.0383 98.445 14.8609V4.04248C98.445 3.76246 98.6738 3.55737 98.9577 3.55737H101.975C102.255 3.55737 102.488 3.76246 102.488 4.04248V21.5814C102.488 22.1178 102.026 22.5556 101.49 22.5556Z" fill="white"/>
<path d="M117.676 22.453C116.781 22.5793 115.475 22.7843 112.714 22.7843C109.417 22.7843 106.503 21.9403 106.503 17.2864V8.79893C106.503 4.14502 109.445 3.32861 112.742 3.32861C115.503 3.32861 116.781 3.5337 117.676 3.65991C118.035 3.71118 118.189 3.83739 118.189 4.17263V6.55086C118.189 6.83088 117.96 7.06358 117.676 7.06358H112.486C111.283 7.06358 110.849 7.47375 110.849 8.80288V11.1298H117.471C117.751 11.1298 117.984 11.3586 117.984 11.6426V14.0721C117.984 14.3521 117.755 14.5848 117.471 14.5848H110.849V17.2943C110.849 18.6234 111.283 19.0336 112.486 19.0336H117.676C117.956 19.0336 118.189 19.2624 118.189 19.5463V21.9246C118.185 22.248 118.035 22.4018 117.676 22.453Z" fill="white"/>
<path d="M133.961 7.16219H129.82V22.0429C129.82 22.3229 129.591 22.5556 129.307 22.5556H125.958C125.678 22.5556 125.446 22.3268 125.446 22.0429V7.16219H121.277C120.997 7.16219 120.764 6.9571 120.764 6.67707V4.04248C120.764 3.76246 120.993 3.55737 121.277 3.55737H133.961C134.241 3.55737 134.497 3.76246 134.497 4.04248V6.67707C134.501 6.9571 134.245 7.16219 133.961 7.16219Z" fill="white"/>
<path d="M149.536 22.5556H145.954C145.698 22.5556 145.493 22.3505 145.442 22.0942L144.523 17.9017H139.281L138.362 22.0942C138.311 22.3505 138.106 22.5556 137.849 22.5556H134.268C134.012 22.5556 133.834 22.4018 133.834 22.1455C133.834 22.1178 133.858 22.0666 133.858 22.0192L137.668 6.16438C138.256 3.71122 140.149 3.32471 141.912 3.32471C143.675 3.32471 145.544 3.70727 146.132 6.16438L149.942 22.0192C149.942 22.0705 149.965 22.1218 149.965 22.1455C149.969 22.4018 149.788 22.5556 149.536 22.5556ZM142.247 7.33969C142.196 7.08333 142.144 6.95713 141.916 6.95713C141.687 6.95713 141.608 7.08333 141.557 7.33969L139.995 14.3955H143.805L142.247 7.33969Z" fill="white"/>
<path d="M48.6638 38.2135L49.922 29.4263H50.0639L53.6372 36.6359L57.175 29.4263H57.3169L58.583 38.2135H57.7232L56.8555 31.9307L53.7476 38.2135H53.5228L50.3795 31.8834L49.5157 38.2135H48.6638Z" fill="white"/>
<path d="M72.2134 29.4263L76.3112 38.2135H75.3607L73.9803 35.3225H70.1941L68.8255 38.2135H67.8474L71.9965 29.4263H72.2134ZM72.099 31.2957L70.5924 34.4746H73.5978L72.099 31.2957Z" fill="white"/>
<path d="M86.0371 29.4263H87.7882C88.7624 29.4263 89.425 29.4657 89.7721 29.5446C90.2927 29.6629 90.7186 29.9193 91.046 30.3137C91.3733 30.7081 91.535 31.1892 91.535 31.7651C91.535 32.2423 91.4207 32.6643 91.1958 33.0271C90.971 33.39 90.6476 33.6661 90.2296 33.8475C89.8115 34.0329 89.2357 34.1275 88.4982 34.1315L91.6573 38.2095H90.5727L87.4136 34.1315H86.9166V38.2095H86.0371V29.4263ZM86.9166 30.29V33.2756L88.4311 33.2874C89.0188 33.2874 89.4526 33.2322 89.7326 33.1218C90.0127 33.0114 90.2335 32.8339 90.3913 32.5894C90.549 32.3448 90.6279 32.0687 90.6279 31.769C90.6279 31.4693 90.549 31.205 90.3873 30.9644C90.2256 30.7238 90.0166 30.5503 89.7602 30.4478C89.4999 30.3452 89.07 30.2939 88.4666 30.2939L86.9166 30.29Z" fill="white"/>
<path d="M101.73 29.4263H102.626V32.7235L106.14 29.4263H107.319L103.099 33.3703L107.646 38.2135H106.479L102.629 34.1196V38.2135H101.734L101.73 29.4263Z" fill="white"/>
<path d="M117.285 29.4263H122.322V30.2861H118.165V33.0429H122.286V33.9027H118.165V37.3537H122.286V38.2135H117.285V29.4263Z" fill="white"/>
<path d="M131.283 30.29V29.4302H136.098V30.29H134.138V38.2174H133.243V30.29H131.283Z" fill="white"/>
<path d="M144.771 36.5767L145.516 36.127C146.041 37.0933 146.648 37.5784 147.339 37.5784C147.634 37.5784 147.91 37.5114 148.171 37.3733C148.431 37.2353 148.628 37.0499 148.762 36.8212C148.896 36.5924 148.963 36.344 148.963 36.0876C148.963 35.7918 148.865 35.5039 148.664 35.2199C148.388 34.8295 147.887 34.3601 147.157 33.8119C146.424 33.2597 145.97 32.8575 145.789 32.6129C145.477 32.1988 145.323 31.7492 145.323 31.268C145.323 30.8855 145.414 30.5384 145.599 30.2229C145.781 29.9074 146.041 29.6589 146.372 29.4775C146.704 29.296 147.066 29.2053 147.457 29.2053C147.871 29.2053 148.257 29.3079 148.62 29.513C148.983 29.718 149.362 30.0967 149.764 30.6449L149.046 31.1892C148.715 30.7514 148.435 30.4635 148.202 30.3215C147.97 30.1834 147.717 30.1124 147.441 30.1124C147.086 30.1124 146.798 30.2189 146.573 30.4358C146.349 30.6528 146.234 30.917 146.234 31.2286C146.234 31.4179 146.274 31.6033 146.353 31.7847C146.431 31.9622 146.577 32.1594 146.79 32.3684C146.905 32.4788 147.283 32.7707 147.926 33.2479C148.687 33.808 149.208 34.3089 149.492 34.7466C149.776 35.1844 149.918 35.6261 149.918 36.0679C149.918 36.7068 149.677 37.259 149.192 37.7283C148.707 38.1976 148.119 38.4343 147.425 38.4343C146.893 38.4343 146.408 38.2923 145.974 38.0083C145.54 37.7244 145.138 37.2471 144.771 36.5767Z" fill="white"/>
</g>
<defs>
<clipPath id="clip0_7_1205">
<rect width="149.931" height="40" fill="white" transform="translate(0.0344238)"/>
</clipPath>
</defs>
</svg>